<?xml version="1.0" standalone="no"?>
<!DOCTYPE svg PUBLIC "-//W3C//DTD SVG 20010904//EN"
 "http://www.w3.org/TR/2001/REC-SVG-20010904/DTD/svg10.dtd">
<svg version="1.0" xmlns="http://www.w3.org/2000/svg"
 width="383.000000pt" height="383.000000pt" viewBox="0 0 383.000000 383.000000"
 preserveAspectRatio="xMidYMid meet">

<g transform="translate(0.000000,383.000000) scale(0.100000,-0.100000)"
fill="#000000" stroke="none">
<path d="M3019 3772 c-24 -16 -79 -66 -121 -111 -249 -265 -433 -609 -588
-1101 -167 -532 -216 -663 -278 -749 -18 -24 -30 -46 -28 -49 3 -2 71 4 153
14 168 20 629 25 963 11 212 -9 298 -1 411 42 98 37 209 124 209 163 0 25 -10
23 -66 -17 -27 -20 -78 -45 -114 -56 -63 -19 -250 -39 -250 -25 0 3 28 41 62
84 88 111 120 184 120 275 0 84 -9 112 -53 161 -109 124 -261 95 -455 -86 -34
-32 -64 -58 -67 -58 -3 0 -13 24 -21 53 -10 33 -31 71 -56 100 -101 114 -252
82 -449 -96 -31 -29 -57 -45 -59 -38 -5 16 159 519 225 686 110 279 250 517
385 655 150 154 179 206 77 142z m-341 -1439 c50 -41 78 -83 92 -144 11 -43
10 -60 -5 -114 -9 -35 -29 -82 -43 -104 -32 -50 -71 -61 -224 -61 -62 0 -142
-5 -178 -10 -36 -6 -87 -13 -114 -17 l-48 -6 56 109 c100 197 182 304 270 355
68 40 138 37 194 -8z m555 24 c49 -21 104 -88 122 -152 21 -70 8 -144 -38
-212 -58 -86 -127 -115 -227 -95 -31 7 -117 12 -191 12 -75 0 -138 3 -142 6
-3 4 10 27 29 53 20 25 67 96 104 156 132 212 230 279 343 232z"/>
<path d="M860 2502 c-211 -21 -382 -86 -486 -186 -65 -62 -54 -108 13 -52 49
41 130 84 197 105 67 21 236 39 236 26 0 -4 -27 -36 -59 -71 -121 -129 -170
-226 -171 -337 0 -79 18 -128 63 -175 47 -49 78 -62 150 -62 57 0 76 6 153 44
49 25 115 68 147 97 32 28 59 50 61 48 1 -2 9 -20 16 -39 43 -109 109 -155
213 -148 75 5 133 31 228 105 39 30 72 53 74 51 16 -16 -152 -377 -254 -548
-207 -344 -489 -671 -948 -1102 -127 -118 -203 -197 -203 -209 0 -40 33 -17
218 153 512 472 883 917 1121 1346 96 172 164 335 313 744 19 54 23 59 62 69
54 14 119 53 145 85 39 49 24 54 -64 20 -72 -28 -489 -18 -860 19 -144 15
-312 23 -365 17z m318 -121 c95 -10 176 -21 179 -25 3 -3 -20 -33 -51 -66 -40
-44 -73 -96 -117 -186 -45 -92 -72 -133 -102 -159 -114 -98 -225 -100 -309 -7
-64 70 -74 173 -28 279 22 52 104 140 155 166 39 21 64 20 273 -2z m689 -48
c-11 -37 -99 -230 -124 -273 -36 -61 -120 -148 -165 -171 -41 -21 -102 -25
-145 -8 -40 15 -92 67 -114 114 -54 117 18 306 132 342 19 6 119 11 228 12
180 1 193 0 188 -16z"/>
</g>
</svg>
